PathFileType	4	(X/Y/Z)	Run_200 02
DataRate	CameraRate	NumFrames	NumMarkers	Units	OrigDataRate	OrigDataStartFrame	OrigNumFrames
100	100	4	45	mm	100	504	137
Frame#	Time	RASI			LPSI			RTH1			RTH2			RTH3			LTH1			LTH2			LTH3			RTB1			RTB2			RTB3			RLMAL			RMMAL			LTB1			LTB2			LTB3			RCAL			RTOE			RMT5			LCAL			LTOE			LMT5			LACR			RACR			CLAV			C7			LPSH			RUA1			RUA2			RUA3			RLEL			RMEL			LUA1			LUA2			LUA3			LLEL			LMEL			RFAsuperior			RFAradius			LFAsuperior			LFAradius			LFAulna			LASI			RFAulna			RPSI		
		X1	Y1	Z1	X2	Y2	Z2	X3	Y3	Z3	X4	Y4	Z4	X5	Y5	Z5	X6	Y6	Z6	X7	Y7	Z7	X8	Y8	Z8	X9	Y9	Z9	X10	Y10	Z10	X11	Y11	Z11	X12	Y12	Z12	X13	Y13	Z13	X14	Y14	Z14	X15	Y15	Z15	X16	Y16	Z16	X17	Y17	Z17	X18	Y18	Z18	X19	Y19	Z19	X20	Y20	Z20	X21	Y21	Z21	X22	Y22	Z22	X23	Y23	Z23	X24	Y24	Z24	X25	Y25	Z25	X26	Y26	Z26	X27	Y27	Z27	X28	Y28	Z28	X29	Y29	Z29	X30	Y30	Z30	X31	Y31	Z31	X32	Y32	Z32	X33	Y33	Z33	X34	Y34	Z34	X35	Y35	Z35	X36	Y36	Z36	X37	Y37	Z37	X38	Y38	Z38	X39	Y39	Z39	X40	Y40	Z40	X41	Y41	Z41	X42	Y42	Z42	X43	Y43	Z43	X44	Y44	Z44	X45	Y45	Z45	

504	  5.040000	1039.693076	1066.349049	-357.157091	870.502000	1094.145123	-521.293246	970.891018	795.422200	-314.235031	1045.398141	731.130718	-343.820928	980.510304	628.143583	-345.706059	969.353725	841.189127	-644.372662	1069.466802	751.592217	-636.215871	1038.230312	642.946579	-629.400305	917.624240	410.266569	-381.724315	844.089807	416.551359	-342.575664	756.819398	320.474077	-376.869305	639.347679	290.984600	-360.790969	674.935408	272.063127	-436.573815	1108.305855	412.203865	-598.805350	1019.279941	314.242096	-627.877715	1074.643248	223.324944	-580.803959	596.967933	318.090436	-431.827079	688.063879	121.055255	-375.483691	628.259324	175.314687	-317.443190	963.316333	 83.935955	-537.278792	1187.807537	 81.959826	-553.334944	1130.491215	 56.986526	-621.662011	985.881907	1569.009050	-630.852944	1006.113512	1547.087933	-318.849803	1066.780337	1488.224440	-456.311254	955.933292	1583.667484	-471.427310	900.191710	1544.004094	-631.000573	958.634323	1406.118273	-225.105626	874.958832	1364.102913	-227.416637	881.995812	1309.100508	-184.362224	893.953185	1240.774394	-163.554051	843.996183	1232.194942	-239.871569	871.019188	1485.401651	-690.477889	798.912452	1431.342210	-653.388805	779.212852	1392.761531	-715.368662	747.440183	1317.055151	-740.433166	737.247346	1309.368960	-650.062890	942.712193	1193.348147	-205.119230	1090.294179	1246.100071	-333.317504	809.646145	1245.648786	-714.680584	982.704400	1262.187278	-683.438667	968.237938	1195.353551	-687.478601	1035.827370	1068.657410	-589.891894	1089.718560	1179.883664	-317.679045	871.953075	1091.205466	-431.222476	
505	  5.050000	1038.998339	1057.996940	-358.517958	868.036979	1087.332443	-522.177446	974.131320	788.066223	-316.038685	1051.221214	724.902172	-343.681214	989.071145	620.510071	-348.032058	968.778507	837.085112	-647.243506	1069.220069	747.355201	-640.238011	1039.986400	639.298209	-631.218177	928.236570	406.805718	-381.873958	855.081651	413.990902	-343.945306	765.364149	320.531216	-378.210452	647.742434	294.432232	-361.198137	682.262099	274.162278	-437.279779	1106.775675	408.485056	-597.972055	1014.488100	314.199897	-628.401269	1064.947199	221.210209	-580.459785	605.347600	321.901838	-432.610580	692.536464	123.586741	-374.829393	634.647434	179.883482	-317.133121	944.748533	 84.874959	-537.652790	1170.522409	 77.962842	-554.216732	1111.551419	 56.633662	-622.114809	986.824262	1560.224879	-633.875474	1004.736016	1539.422953	-319.862549	1066.690558	1480.515723	-457.406315	955.398182	1576.025691	-473.910271	901.603074	1532.878726	-634.928218	953.959340	1399.082798	-226.113746	869.469416	1358.653267	-230.374837	874.527086	1304.502656	-185.836593	884.953668	1236.175330	-163.705338	837.058010	1227.406250	-240.938093	873.975302	1472.910848	-695.981734	802.045124	1417.545290	-661.304661	785.201751	1378.259951	-723.278087	755.260208	1302.738413	-749.141971	743.323739	1294.669244	-658.993534	933.114355	1185.644695	-202.666366	1085.844808	1228.618706	-328.588014	817.653330	1231.853944	-722.340647	989.849472	1249.656423	-687.244745	976.038059	1182.712453	-691.934298	1033.308766	1060.840450	-591.687039	1082.678214	1162.762322	-310.541572	869.825807	1083.198674	-431.988573	
506	  5.060000	1037.830295	1049.753347	-359.715110	865.276095	1081.188530	-521.994404	977.271164	781.930140	-317.916754	1056.985053	719.931949	-343.874234	997.936541	614.165832	-350.225687	967.580006	833.531314	-649.534717	1068.333522	744.052051	-644.696172	1041.902275	636.321927	-633.853548	939.669532	403.925270	-382.521698	867.093105	411.440420	-345.554162	775.372993	320.426247	-379.640850	657.953521	296.908745	-361.419865	691.066390	275.725079	-437.970823	1104.457867	405.403647	-597.744062	1008.355829	315.684109	-630.013807	1053.875297	220.015947	-581.316412	614.971349	324.620283	-432.914747	699.754546	125.409271	-374.749071	644.089522	183.248190	-316.662528	925.483589	 85.815703	-538.900564	1152.107706	 76.107169	-555.117645	1092.357812	 56.597599	-622.774131	987.434332	1552.027814	-636.859735	1003.026108	1532.377650	-320.654456	1066.598051	1473.899932	-458.215583	955.401063	1569.604861	-476.415461	902.943211	1521.867052	-639.049508	949.034253	1392.158277	-227.104339	863.732245	1353.112566	-233.480496	866.742716	1299.969539	-187.483440	875.759593	1231.630274	-163.945642	830.236005	1222.723523	-242.099187	877.201980	1459.878038	-701.460408	805.622105	1403.105925	-669.224075	791.935114	1363.055082	-731.022681	764.186904	1287.864173	-757.806310	750.384551	1279.381616	-667.834717	923.205717	1177.857263	-200.331025	1081.141571	1209.668855	-323.106541	826.627494	1217.208146	-729.828130	997.890612	1236.062957	-690.937162	984.623408	1169.002223	-696.132550	1030.525438	1053.767984	-593.293839	1074.958957	1144.427928	-302.633127	867.687224	1075.994045	-432.332813	
507	  5.070000	1036.068801	1042.180488	-360.559755	862.343077	1075.812101	-521.001846	980.439737	777.176626	-319.797930	1062.768956	716.809006	-344.615304	1007.097084	609.808859	-352.065678	965.301023	829.208524	-650.985712	1066.491301	740.790781	-648.150082	1042.263596	632.773840	-636.531779	951.789048	401.775053	-383.703003	879.704247	409.582066	-347.153387	786.689589	320.312028	-380.810733	669.544419	298.369980	-361.514111	701.311906	276.735535	-438.563099	1100.160783	401.852486	-598.584452	1000.227232	316.707694	-632.153509	1041.055796	218.501105	-582.596968	625.440883	325.952907	-432.784450	710.180462	126.671257	-375.053900	656.388816	185.337037	-316.044009	905.949961	 86.595803	-540.106165	1133.259720	 74.536133	-556.083680	1073.027969	 56.181962	-623.714330	987.793343	1544.584401	-639.358163	1001.129233	1526.320353	-321.393085	1066.435109	1468.435594	-458.806293	955.828505	1564.390256	-478.620968	904.022291	1512.073035	-643.157637	943.881245	1386.163119	-228.144760	857.869863	1348.083327	-236.731994	858.895803	1295.919926	-189.463810	866.581775	1227.669422	-164.538889	823.838929	1218.569430	-243.511400	880.965934	1446.882508	-706.722043	809.527798	1388.501154	-676.771749	799.431417	1347.622097	-738.474703	774.411538	1272.741197	-766.169391	758.613183	1263.674384	-676.505735	913.091231	1170.410185	-198.271459	1076.003059	1189.368971	-317.117083	836.755662	1202.097396	-736.855225	1007.063895	1221.755229	-694.282612	994.138058	1154.626614	-699.910493	1027.775245	1047.874365	-594.690502	1066.346069	1125.207826	-294.221300	865.361272	1070.054383	-432.236570	
